<svg width="19" height="20" viewBox="0 0 19 20" fill="none" xmlns="http://www.w3.org/2000/svg">
<path opacity="0.4" d="M9.47474 5.12942V17.7861C9.34051 17.7861 9.19839 17.7624 9.08785 17.6993L9.05627 17.6835C7.54031 16.8544 4.89527 15.9859 3.18192 15.7569L2.95294 15.7254C2.19496 15.6306 1.5791 14.92 1.5791 14.162V4.6241C1.5791 3.68452 2.34498 2.97391 3.28456 3.05287C4.94264 3.18709 7.45345 4.02403 8.85888 4.90045L9.05627 5.01888C9.1747 5.08994 9.32472 5.12942 9.47474 5.12942Z" fill="#BEBEBE"/>
<path d="M17.3702 4.63197V14.162C17.3702 14.92 16.7544 15.6306 15.9964 15.7253L15.7358 15.7569C14.0146 15.9859 11.3617 16.8623 9.8457 17.6992C9.74306 17.7624 9.61673 17.7861 9.47461 17.7861V5.1294C9.62463 5.1294 9.77464 5.08992 9.89308 5.01886L10.0273 4.93201C11.4327 4.04769 13.9514 3.20286 15.6095 3.06074H15.6569C16.5965 2.98178 17.3702 3.6845 17.3702 4.63197Z" fill="#BEBEBE"/>
<path d="M6.11869 8.24099H4.34217C4.01845 8.24099 3.75 7.97253 3.75 7.64881C3.75 7.32509 4.01845 7.05664 4.34217 7.05664H6.11869C6.44241 7.05664 6.71086 7.32509 6.71086 7.64881C6.71086 7.97253 6.44241 8.24099 6.11869 8.24099Z" fill="#BEBEBE"/>
<path d="M6.71086 10.6101H4.34217C4.01845 10.6101 3.75 10.3417 3.75 10.018C3.75 9.69423 4.01845 9.42578 4.34217 9.42578H6.71086C7.03458 9.42578 7.30304 9.69423 7.30304 10.018C7.30304 10.3417 7.03458 10.6101 6.71086 10.6101Z" fill="#BEBEBE"/>
</svg>
