<svg width="21" height="20" viewBox="0 0 21 20" fill="none" xmlns="http://www.w3.org/2000/svg">
<path d="M12.3011 1.00497C14.1412 1.19886 15.8601 2.01501 17.1733 3.31845C18.4866 4.62189 19.3157 6.33453 19.5234 8.17315M12.3011 4.61614C13.189 4.79123 14.0038 5.22917 14.6397 5.87311C15.2756 6.51706 15.7032 7.33728 15.8671 8.22732M19.4783 14.4746V17.183C19.4793 17.4345 19.4278 17.6833 19.3271 17.9137C19.2264 18.1441 19.0786 18.3509 18.8934 18.5208C18.7081 18.6908 18.4894 18.8202 18.2512 18.9008C18.013 18.9813 17.7606 19.0112 17.5102 18.9886C14.7322 18.6864 12.0638 17.7372 9.7191 16.217C7.5378 14.8309 5.68843 12.9816 4.30234 10.8003C2.77691 8.44493 1.82743 5.76351 1.53077 2.97306C1.5082 2.72341 1.53787 2.47179 1.61789 2.23424C1.6979 1.99668 1.82649 1.77838 1.99549 1.59325C2.16449 1.40812 2.37019 1.2602 2.59948 1.15892C2.82878 1.05763 3.07666 1.00521 3.32732 1.00497H6.0357C6.47384 1.00066 6.89859 1.15581 7.23079 1.4415C7.56299 1.72719 7.77997 2.12393 7.84129 2.55778C7.9553 3.42457 8.16731 4.27564 8.47325 5.09462C8.59471 5.41776 8.621 5.76893 8.549 6.10655C8.47699 6.44416 8.30972 6.75406 8.06699 6.99952L6.92044 8.14607C8.20562 10.4063 10.077 12.2777 12.3372 13.5628L13.4837 12.4163C13.7292 12.1736 14.0391 12.0063 14.3767 11.9343C14.7143 11.8623 15.0655 11.8886 15.3886 12.01C16.2076 12.316 17.0587 12.528 17.9255 12.642C18.364 12.7038 18.7646 12.9247 19.0509 13.2626C19.3372 13.6005 19.4893 14.0319 19.4783 14.4746Z" stroke="#141414" stroke-width="2" stroke-linecap="round" stroke-linejoin="round"/>
</svg>
