<svg width="15" height="17" viewBox="0 0 15 17" fill="none" xmlns="http://www.w3.org/2000/svg">
<path d="M6.84608 9.67318C6.52236 9.67318 6.25391 9.40473 6.25391 9.08101V5.13319C6.25391 4.80947 6.52236 4.54102 6.84608 4.54102C7.1698 4.54102 7.43825 4.80947 7.43825 5.13319V9.08101C7.43825 9.40473 7.1698 9.67318 6.84608 9.67318Z" fill="#BEBEBE"/>
<path d="M9.12724 1.5394H4.5636C4.24778 1.5394 3.99512 1.28674 3.99512 0.970913C3.99512 0.655087 4.24778 0.394531 4.5636 0.394531H9.12724C9.44307 0.394531 9.69573 0.647192 9.69573 0.963017C9.69573 1.27884 9.44307 1.5394 9.12724 1.5394Z" fill="#BEBEBE"/>
<path opacity="0.4" d="M9.21422 14.5843V12.263C9.21422 11.2602 9.81429 10.6602 10.817 10.6602H13.1384C13.2884 10.6602 13.4226 10.6759 13.5568 10.7075C13.6437 10.2654 13.691 9.80743 13.691 9.34159C13.691 5.5675 10.6196 2.49609 6.84553 2.49609C3.0714 2.49609 0 5.5675 0 9.34159C0 13.1157 3.0714 16.1871 6.84553 16.1871C7.8009 16.1871 8.7089 15.9897 9.53794 15.6344C9.33266 15.366 9.21422 15.0185 9.21422 14.5843Z" fill="#BEBEBE"/>
<path d="M13.139 10.6602H10.8177C9.81491 10.6602 9.21484 11.2602 9.21484 12.263V14.5843C9.21484 15.587 9.81491 16.1871 10.8177 16.1871H13.139C14.1417 16.1871 14.7418 15.587 14.7418 14.5843V12.263C14.7418 11.2602 14.1417 10.6602 13.139 10.6602ZM12.9179 14.1816L11.9862 14.7185C11.7967 14.8291 11.6072 14.8843 11.4335 14.8843C11.2993 14.8843 11.1809 14.8527 11.0703 14.7896C10.8177 14.6396 10.6755 14.3474 10.6755 13.9605V12.8867C10.6755 12.4998 10.8177 12.2077 11.0703 12.0577C11.323 11.9077 11.6467 11.9392 11.9862 12.1287L12.9179 12.6656C13.2495 12.863 13.439 13.1315 13.439 13.4236C13.439 13.7158 13.2574 13.9842 12.9179 14.1816Z" fill="#BEBEBE"/>
</svg>
