<svg width="20" height="20" viewBox="0 0 24 24" fill="none" xmlns="http://www.w3.org/2000/svg">
<g clip-path="url(#clip0_299_4320)">
<g clip-path="url(#clip1_299_4320)">
<path fill-rule="evenodd" clip-rule="evenodd" d="M5.2 0.9C5.38885 0.648194 5.68524 0.5 6 0.5H18C18.3148 0.5 18.6111 0.648194 18.8 0.9L21.7938 4.89178C21.9231 5.0603 22 5.27117 22 5.5V19.5C22 20.2957 21.6839 21.0587 21.1213 21.6213C20.5587 22.1839 19.7957 22.5 19 22.5H5C4.20435 22.5 3.44129 22.1839 2.87868 21.6213C2.31607 21.0587 2 20.2956 2 19.5V5.5C2 5.27123 2.07682 5.06041 2.20606 4.89191L5.2 0.9ZM17.5 2.5L19 4.5H5L6.5 2.5H17.5ZM4 19.5V6.5H20V19.5C20 19.7652 19.8946 20.0196 19.7071 20.2071C19.5196 20.3946 19.2652 20.5 19 20.5H5C4.73478 20.5 4.48043 20.3946 4.29289 20.2071C4.10536 20.0196 4 19.7652 4 19.5ZM9.00004 9.50018V8.50018H7.00004V9.50018C7.00004 10.8263 7.52683 12.098 8.46451 13.0357C9.40219 13.9734 10.674 14.5002 12 14.5002C13.3261 14.5002 14.5979 13.9734 15.5356 13.0357C16.4733 12.098 17 10.8263 17 9.50018V8.50018H15V9.50018C15 10.2958 14.684 11.0589 14.1214 11.6215C13.5588 12.1841 12.7957 12.5002 12 12.5002C11.2044 12.5002 10.4413 12.1841 9.87872 11.6215C9.31611 11.0589 9.00004 10.2958 9.00004 9.50018Z" fill="black"/>
</g>
</g>
<defs>
<clipPath id="clip0_299_4320">
<rect width="24" height="24" fill="white"/>
</clipPath>
<clipPath id="clip1_299_4320">
<rect width="24" height="24" fill="white" transform="translate(0 -0.5)"/>
</clipPath>
</defs>
</svg>
