<svg width="19" height="20" viewBox="0 0 19 20" fill="none" xmlns="http://www.w3.org/2000/svg">
<path d="M9.54688 2C8.61862 2 7.72838 2.36875 7.072 3.02513C6.41562 3.6815 6.04688 4.57174 6.04688 5.5C6.04688 6.42826 6.41562 7.3185 7.072 7.97487C7.72838 8.63125 8.61862 9 9.54688 9C10.4751 9 11.3654 8.63125 12.0217 7.97487C12.6781 7.3185 13.0469 6.42826 13.0469 5.5C13.0469 4.57174 12.6781 3.6815 12.0217 3.02513C11.3654 2.36875 10.4751 2 9.54688 2ZM4.04688 5.5C4.04688 4.04131 4.62634 2.64236 5.65779 1.61091C6.68924 0.579463 8.08818 0 9.54688 0C11.0056 0 12.4045 0.579463 13.436 1.61091C14.4674 2.64236 15.0469 4.04131 15.0469 5.5C15.0469 6.95869 14.4674 8.35764 13.436 9.38909C12.4045 10.4205 11.0056 11 9.54688 11C8.08818 11 6.68924 10.4205 5.65779 9.38909C4.62634 8.35764 4.04688 6.95869 4.04688 5.5ZM0.546875 17C0.546875 15.6739 1.07366 14.4021 2.01134 13.4645C2.94902 12.5268 4.22079 12 5.54688 12H13.5469C14.873 12 16.1447 12.5268 17.0824 13.4645C18.0201 14.4021 18.5469 15.6739 18.5469 17V20H0.546875V17ZM5.54688 14C4.75123 14 3.98816 14.3161 3.42555 14.8787C2.86295 15.4413 2.54688 16.2044 2.54688 17V18H16.5469V17C16.5469 16.2044 16.2308 15.4413 15.6682 14.8787C15.1056 14.3161 14.3425 14 13.5469 14H5.54688Z" fill="black"/>
</svg>
